HIERARCHY
ROOT mixamorig:Hips
{
	OFFSET 0.000000 201.639420 0.000000
	CHANNELS 6 Xposition Yposition Zposition Xrotation Yrotation Zrotation
	JOINT mixamorig:Spine
	{
		OFFSET 0.006200 19.524994 -2.481800
		CHANNELS 3 Xrotation Yrotation Zrotation
		JOINT mixamorig:Spine1
		{
			OFFSET -0.000900 22.835007 -2.825400
			CHANNELS 3 Xrotation Yrotation Zrotation
			JOINT mixamorig:Spine2
			{
				OFFSET -0.020600 26.552490 -3.193300
				CHANNELS 3 Xrotation Yrotation Zrotation
				JOINT mixamorig:Neck
				{
					OFFSET -0.060000 30.701813 1.352200
					CHANNELS 3 Xrotation Yrotation Zrotation
					JOINT mixamorig:Head
					{
						OFFSET -0.087200 22.547607 3.670900
						CHANNELS 3 Xrotation Yrotation Zrotation
						JOINT mixamorig:HeadTop_End
						{
							OFFSET -0.830600 40.355194 7.893500
							CHANNELS 3 Xrotation Yrotation Zrotation
							End Site
							{
								OFFSET 0.000000 30.592346 0.000000
							}
						}
						JOINT mixamorig:RightEye
						{
							OFFSET -6.302100 18.118591 16.197100
							CHANNELS 3 Xrotation Yrotation Zrotation
							End Site
							{
								OFFSET 0.000000 30.592346 0.000000
							}
						}
						JOINT mixamorig:LeftEye
						{
							OFFSET 6.741500 18.382690 16.401899
							CHANNELS 3 Xrotation Yrotation Zrotation
							End Site
							{
								OFFSET 0.000000 30.592346 0.000000
							}
						}
					}
				}
				JOINT mixamorig:LeftShoulder
				{
					OFFSET 11.924900 18.230499 1.425400
					CHANNELS 3 Xrotation Yrotation Zrotation
					JOINT mixamorig:LeftArm
					{
						OFFSET 25.435989 -0.697632 -5.229300
						CHANNELS 3 Xrotation Yrotation Zrotation
						JOINT mixamorig:LeftForeArm
						{
							OFFSET 54.684776 0.000000 0.000000
							CHANNELS 3 Xrotation Yrotation Zrotation
							JOINT mixamorig:LeftHand
							{
								OFFSET 55.098175 0.000000 0.000000
								CHANNELS 3 Xrotation Yrotation Zrotation
								JOINT mixamorig:LeftHandMiddle1
								{
									OFFSET 23.369751 0.000000 0.000000
									CHANNELS 3 Xrotation Yrotation Zrotation
									JOINT mixamorig:LeftHandMiddle2
									{
										OFFSET 6.378677 0.000000 0.000000
										CHANNELS 3 Xrotation Yrotation Zrotation
										JOINT mixamorig:LeftHandMiddle3
										{
											OFFSET 6.148331 0.000000 0.000000
											CHANNELS 3 Xrotation Yrotation Zrotation
											JOINT mixamorig:LeftHandMiddle4
											{
												OFFSET 6.582504 0.000000 0.000000
												CHANNELS 3 Xrotation Yrotation Zrotation
												End Site
												{
													OFFSET -1.168900 6.395691 1.028606
												}
											}
										}
									}
								}
								JOINT mixamorig:LeftHandThumb1
								{
									OFFSET 7.235672 -3.848206 5.434273
									CHANNELS 3 Xrotation Yrotation Zrotation
									JOINT mixamorig:LeftHandThumb2
									{
										OFFSET 6.568451 -3.792297 3.792300
										CHANNELS 3 Xrotation Yrotation Zrotation
										JOINT mixamorig:LeftHandThumb3
										{
											OFFSET 6.063080 -3.500519 3.500518
											CHANNELS 3 Xrotation Yrotation Zrotation
											JOINT mixamorig:LeftHandThumb4
											{
												OFFSET 4.793182 -2.767334 2.767349
												CHANNELS 3 Xrotation Yrotation Zrotation
												End Site
												{
													OFFSET 0.101639 6.054260 1.275483
												}
											}
										}
									}
								}
								JOINT mixamorig:LeftHandIndex1
								{
									OFFSET 23.101074 -0.309540 4.992809
									CHANNELS 3 Xrotation Yrotation Zrotation
									JOINT mixamorig:LeftHandIndex2
									{
										OFFSET 6.226883 0.000000 0.000000
										CHANNELS 3 Xrotation Yrotation Zrotation
										JOINT mixamorig:LeftHandIndex3
										{
											OFFSET 6.094330 0.000000 0.000000
											CHANNELS 3 Xrotation Yrotation Zrotation
											JOINT mixamorig:LeftHandIndex4
											{
												OFFSET 5.482605 0.000000 0.000000
												CHANNELS 3 Xrotation Yrotation Zrotation
												End Site
												{
													OFFSET -1.427902 5.233032 0.797164
												}
											}
										}
									}
								}
								JOINT mixamorig:LeftHandRing1
								{
									OFFSET 22.299240 0.021149 -3.964172
									CHANNELS 3 Xrotation Yrotation Zrotation
									JOINT mixamorig:LeftHandRing2
									{
										OFFSET 6.321869 0.000000 0.000000
										CHANNELS 3 Xrotation Yrotation Zrotation
										JOINT mixamorig:LeftHandRing3
										{
											OFFSET 5.899796 0.000000 0.000000
											CHANNELS 3 Xrotation Yrotation Zrotation
											JOINT mixamorig:LeftHandRing4
											{
												OFFSET 6.517899 0.000000 0.000000
												CHANNELS 3 Xrotation Yrotation Zrotation
												End Site
												{
													OFFSET -1.637299 6.232208 0.980890
												}
											}
										}
									}
								}
								JOINT mixamorig:LeftHandPinky1
								{
									OFFSET 20.463791 -0.302338 -8.562233
									CHANNELS 3 Xrotation Yrotation Zrotation
									JOINT mixamorig:LeftHandPinky2
									{
										OFFSET 6.908646 0.000000 0.000000
										CHANNELS 3 Xrotation Yrotation Zrotation
										JOINT mixamorig:LeftHandPinky3
										{
											OFFSET 4.622849 0.000000 0.000000
											CHANNELS 3 Xrotation Yrotation Zrotation
											JOINT mixamorig:LeftHandPinky4
											{
												OFFSET 5.216080 0.000000 0.000000
												CHANNELS 3 Xrotation Yrotation Zrotation
												End Site
												{
													OFFSET -0.606308 5.116241 0.814926
												}
											}
										}
									}
								}
							}
						}
					}
				}
				JOINT mixamorig:RightShoulder
				{
					OFFSET -12.001300 18.284088 1.348900
					CHANNELS 3 Xrotation Yrotation Zrotation
					JOINT mixamorig:RightArm
					{
						OFFSET -25.308500 -0.751312 -5.164599
						CHANNELS 3 Xrotation Yrotation Zrotation
						JOINT mixamorig:RightForeArm
						{
							OFFSET -54.684429 0.000000 0.000000
							CHANNELS 3 Xrotation Yrotation Zrotation
							JOINT mixamorig:RightHand
							{
								OFFSET -55.150291 0.000000 0.000000
								CHANNELS 3 Xrotation Yrotation Zrotation
								JOINT mixamorig:RightHandMiddle1
								{
									OFFSET -23.317566 0.000000 0.000000
									CHANNELS 3 Xrotation Yrotation Zrotation
									JOINT mixamorig:RightHandMiddle2
									{
										OFFSET -6.378403 0.000000 0.000000
										CHANNELS 3 Xrotation Yrotation Zrotation
										JOINT mixamorig:RightHandMiddle3
										{
											OFFSET -6.148193 0.000000 0.000000
											CHANNELS 3 Xrotation Yrotation Zrotation
											JOINT mixamorig:RightHandMiddle4
											{
												OFFSET -6.583389 0.000000 0.000000
												CHANNELS 3 Xrotation Yrotation Zrotation
												End Site
												{
													OFFSET 1.171692 6.395905 1.029786
												}
											}
										}
									}
								}
								JOINT mixamorig:RightHandThumb1
								{
									OFFSET -7.190521 -3.860474 5.435846
									CHANNELS 3 Xrotation Yrotation Zrotation
									JOINT mixamorig:RightHandThumb2
									{
										OFFSET -6.567429 -3.791718 3.791708
										CHANNELS 3 Xrotation Yrotation Zrotation
										JOINT mixamorig:RightHandThumb3
										{
											OFFSET -6.062469 -3.500153 3.500166
											CHANNELS 3 Xrotation Yrotation Zrotation
											JOINT mixamorig:RightHandThumb4
											{
												OFFSET -4.792618 -2.767029 2.767022
												CHANNELS 3 Xrotation Yrotation Zrotation
												End Site
												{
													OFFSET -0.100327 6.053253 1.276754
												}
											}
										}
									}
								}
								JOINT mixamorig:RightHandIndex1
								{
									OFFSET -23.048981 -0.310791 4.992554
									CHANNELS 3 Xrotation Yrotation Zrotation
									JOINT mixamorig:RightHandIndex2
									{
										OFFSET -6.227539 0.000000 0.000000
										CHANNELS 3 Xrotation Yrotation Zrotation
										JOINT mixamorig:RightHandIndex3
										{
											OFFSET -6.095047 0.000000 0.000000
											CHANNELS 3 Xrotation Yrotation Zrotation
											JOINT mixamorig:RightHandIndex4
											{
												OFFSET -5.484772 0.000000 0.000000
												CHANNELS 3 Xrotation Yrotation Zrotation
												End Site
												{
													OFFSET 1.420593 5.237305 0.797056
												}
											}
										}
									}
								}
								JOINT mixamorig:RightHandRing1
								{
									OFFSET -22.246323 0.020569 -3.963762
									CHANNELS 3 Xrotation Yrotation Zrotation
									JOINT mixamorig:RightHandRing2
									{
										OFFSET -6.322128 0.000000 0.000000
										CHANNELS 3 Xrotation Yrotation Zrotation
										JOINT mixamorig:RightHandRing3
										{
											OFFSET -5.900024 0.000000 0.000000
											CHANNELS 3 Xrotation Yrotation Zrotation
											JOINT mixamorig:RightHandRing4
											{
												OFFSET -6.518356 0.000000 0.000000
												CHANNELS 3 Xrotation Yrotation Zrotation
												End Site
												{
													OFFSET 1.636398 6.232697 0.982186
												}
											}
										}
									}
								}
								JOINT mixamorig:RightHandPinky1
								{
									OFFSET -20.411011 -0.303314 -8.561701
									CHANNELS 3 Xrotation Yrotation Zrotation
									JOINT mixamorig:RightHandPinky2
									{
										OFFSET -6.907349 0.000000 0.000000
										CHANNELS 3 Xrotation Yrotation Zrotation
										JOINT mixamorig:RightHandPinky3
										{
											OFFSET -4.623840 0.000000 0.000000
											CHANNELS 3 Xrotation Yrotation Zrotation
											JOINT mixamorig:RightHandPinky4
											{
												OFFSET -5.218353 0.000000 0.000000
												CHANNELS 3 Xrotation Yrotation Zrotation
												End Site
												{
													OFFSET 0.602097 5.118835 0.816273
												}
											}
										}
									}
								}
							}
						}
					}
				}
			}
		}
	}
	JOINT mixamorig:LeftUpLeg
	{
		OFFSET 18.168400 -13.561905 -0.039000
		CHANNELS 3 Xrotation Yrotation Zrotation
		JOINT mixamorig:LeftLeg
		{
			OFFSET 0.577358 -80.825211 -3.695000
			CHANNELS 3 Xrotation Yrotation Zrotation
			JOINT mixamorig:LeftFoot
			{
				OFFSET -0.577356 -83.370262 -6.520700
				CHANNELS 3 Xrotation Yrotation Zrotation
				JOINT mixamorig:LeftToeBase
				{
					OFFSET 0.750401 -20.798306 25.135401
					CHANNELS 3 Xrotation Yrotation Zrotation
					JOINT mixamorig:LeftToe_End
					{
						OFFSET -0.000500 0.001200 19.917799
						CHANNELS 3 Xrotation Yrotation Zrotation
						End Site
						{
							OFFSET 0.000000 19.917805 0.000000
						}
					}
				}
			}
		}
	}
	JOINT mixamorig:RightUpLeg
	{
		OFFSET -18.162500 -13.585098 -0.041000
		CHANNELS 3 Xrotation Yrotation Zrotation
		JOINT mixamorig:RightLeg
		{
			OFFSET -0.595024 -80.945297 -3.631900
			CHANNELS 3 Xrotation Yrotation Zrotation
			JOINT mixamorig:RightFoot
			{
				OFFSET 0.595024 -83.218193 -6.561200
				CHANNELS 3 Xrotation Yrotation Zrotation
				JOINT mixamorig:RightToeBase
				{
					OFFSET -0.753601 -20.807106 25.115000
					CHANNELS 3 Xrotation Yrotation Zrotation
					JOINT mixamorig:RightToe_End
					{
						OFFSET 0.000299 0.001700 19.918200
						CHANNELS 3 Xrotation Yrotation Zrotation
						End Site
						{
							OFFSET 0.000000 19.918203 0.000000
						}
					}
				}
			}
		}
	}
}
MOTION
Frames: 4
Frame Time: 0.033333
3.166527 188.281403 -10.450450 2.607438 -10.102600 18.470172 -2.919576 -5.787756 -6.782737 4.455589 -1.176116 -1.934466 4.442115 -1.101285 -2.007390 19.201584 -0.763092 2.627511 15.537543 -0.915343 -4.218035 0.000001 0.000001 -0.000001 0.000001 0.000001 -0.000001 0.000001 0.000001 -0.000001 0.507964 7.304407 -11.473414 41.761771 -69.407706 -24.009085 -0.000000 -24.601901 0.000009 -11.004864 -1.658328 -4.540800 0.168123 1.515270 -12.661694 0.168986 1.519012 -12.693691 0.042246 0.763223 -6.337733 -0.000000 0.000000 0.000000 -1.558370 5.268772 6.377027 4.800784 18.643264 1.528253 -0.091667 6.909929 3.060025 0.000001 -0.000000 -0.000002 0.168546 1.517148 -12.677674 0.168555 1.517132 -12.677694 0.042256 0.763245 -6.337718 -0.000000 -0.000001 0.000000 0.168547 1.517150 -12.677669 0.168555 1.517146 -12.677696 0.042254 0.763244 -6.337725 -0.000002 0.000000 0.000001 1.044010 5.476184 -12.220674 0.164102 -2.538665 -13.176061 0.042248 0.763252 -6.337728 0.000000 -0.000001 -0.000000 1.080523 1.819041 10.983676 -17.014044 -9.180345 77.549428 0.000004 6.002653 -0.000001 19.328670 4.093736 3.967768 0.073436 -1.009966 8.317468 0.073433 -1.009969 8.317456 0.018387 -0.506316 4.158405 0.000000 -0.000001 -0.000001 -1.849250 -3.581802 -6.586123 5.652736 -20.117559 -0.987248 -0.748795 -5.588991 -2.702392 -0.000001 -0.000002 -0.000000 0.073437 -1.009969 8.317477 0.073436 -1.009963 8.317464 0.018385 -0.506318 4.158401 0.000001 -0.000001 0.000002 0.073438 -1.009970 8.317470 0.073435 -1.009970 8.317456 0.018384 -0.506311 4.158405 -0.000001 -0.000002 0.000001 0.073435 -1.009967 8.317482 0.073437 -1.009969 8.317454 0.018383 -0.506315 4.158407 -0.000001 -0.000002 0.000001 -21.797910 3.117757 -9.105131 28.707135 9.357284 0.195802 -6.157512 9.790803 -10.124779 -0.308229 -0.000000 -0.000002 0.000000 -0.000000 0.000000 -36.940774 -5.170575 -12.116579 53.180092 8.275800 -10.019851 -19.406989 8.996919 -4.223872 -1.714044 -0.000000 0.000001 0.000000 -0.000000 -0.000000 
3.215572 188.302246 -10.470199 2.676204 -10.052244 18.389866 -2.934341 -5.865889 -6.720131 4.463438 -1.184617 -1.860380 4.450613 -1.110949 -1.934148 19.223846 -0.730826 2.542730 15.638025 -0.838972 -4.088578 0.000001 -0.000000 0.000002 0.000001 -0.000000 0.000002 0.000001 -0.000000 0.000002 0.512640 7.271089 -11.506269 41.868916 -69.516648 -23.939946 -0.000008 -24.527925 -0.000002 -11.310727 -1.749910 -4.463818 0.168122 1.515271 -12.661692 0.168986 1.519013 -12.693693 0.042246 0.763224 -6.337736 -0.000001 -0.000000 0.000002 -1.558370 5.268771 6.377029 4.800782 18.643266 1.528252 -0.091668 6.909926 3.060028 0.000002 -0.000000 -0.000002 0.168547 1.517146 -12.677677 0.168556 1.517132 -12.677695 0.042255 0.763244 -6.337720 -0.000000 -0.000001 0.000000 0.168546 1.517146 -12.677669 0.168553 1.517148 -12.677691 0.042252 0.763243 -6.337728 -0.000001 0.000001 -0.000002 1.044009 5.476185 -12.220674 0.164103 -2.538665 -13.176060 0.042250 0.763250 -6.337728 -0.000001 -0.000001 0.000001 1.076583 1.819984 10.674419 -17.009579 -9.199690 77.750133 -0.000000 5.999210 -0.000015 19.136684 4.089594 3.978657 0.073437 -1.009966 8.317469 0.073434 -1.009970 8.317457 0.018386 -0.506316 4.158400 0.000001 0.000001 -0.000002 -1.849247 -3.581799 -6.586121 5.652735 -20.117556 -0.987247 -0.748795 -5.588993 -2.702393 0.000000 0.000001 0.000000 0.073437 -1.009968 8.317478 0.073436 -1.009964 8.317461 0.018385 -0.506319 4.158399 -0.000000 0.000002 -0.000001 0.073438 -1.009970 8.317469 0.073433 -1.009968 8.317454 0.018383 -0.506312 4.158404 -0.000001 -0.000002 0.000001 0.073436 -1.009966 8.317482 0.073438 -1.009970 8.317456 0.018383 -0.506315 4.158407 -0.000001 -0.000001 -0.000000 -21.918142 3.123827 -9.000217 28.750763 9.343298 0.160304 -6.165930 9.716607 -10.089059 -0.308229 -0.000000 -0.000002 0.000000 -0.000000 -0.000000 -37.016384 -5.274795 -12.069939 53.107798 8.265192 -10.020630 -19.347469 9.043253 -4.212007 -1.688517 0.000000 -0.000001 0.000000 -0.000000 -0.000000 
3.260910 188.321930 -10.480033 2.743440 -10.018992 18.327764 -2.957642 -5.929809 -6.673907 4.476033 -1.191886 -1.795387 4.463798 -1.118980 -1.870008 19.243607 -0.697952 2.465026 15.741899 -0.756293 -3.957292 0.000001 -0.000000 0.000001 0.000001 -0.000000 0.000001 0.000001 -0.000000 0.000001 0.515702 7.234530 -11.520454 41.946651 -69.619060 -23.899785 -0.000009 -24.460294 -0.000009 -11.592157 -1.836527 -4.390931 0.168121 1.515270 -12.661694 0.168985 1.519012 -12.693693 0.042246 0.763226 -6.337737 -0.000000 -0.000001 0.000003 -1.558370 5.268772 6.377027 4.800782 18.643271 1.528251 -0.091669 6.909929 3.060026 0.000001 0.000002 0.000002 0.168546 1.517148 -12.677675 0.168556 1.517134 -12.677695 0.042254 0.763243 -6.337722 -0.000000 0.000001 -0.000000 0.168545 1.517147 -12.677670 0.168554 1.517146 -12.677693 0.042252 0.763250 -6.337724 0.000001 -0.000002 -0.000001 1.044008 5.476187 -12.220674 0.164103 -2.538666 -13.176062 0.042249 0.763250 -6.337727 -0.000001 -0.000001 0.000002 1.073303 1.823078 10.399946 -17.009656 -9.216525 77.931222 0.000001 5.993100 0.000003 18.964478 4.085594 3.988635 0.073438 -1.009969 8.317468 0.073433 -1.009968 8.317456 0.018387 -0.506316 4.158402 0.000000 0.000000 -0.000002 -1.849248 -3.581802 -6.586122 5.652734 -20.117557 -0.987248 -0.748796 -5.588995 -2.702393 -0.000001 0.000003 0.000000 0.073437 -1.009969 8.317480 0.073435 -1.009965 8.317461 0.018385 -0.506319 4.158399 -0.000000 0.000001 -0.000002 0.073438 -1.009970 8.317471 0.073436 -1.009966 8.317454 0.018383 -0.506314 4.158407 -0.000000 0.000000 -0.000001 0.073436 -1.009968 8.317482 0.073438 -1.009968 8.317453 0.018384 -0.506316 4.158409 -0.000001 -0.000001 -0.000001 -22.018450 3.145863 -8.911820 28.781468 9.332141 0.129710 -6.174316 9.646106 -10.055843 -0.308229 0.000001 -0.000002 0.000000 0.000001 0.000000 -37.088754 -5.357051 -12.034177 53.044837 8.255522 -10.021277 -19.295706 9.090242 -4.198847 -1.665498 -0.000003 -0.000001 -0.000000 -0.000000 -0.000000 
3.293720 188.336990 -10.468019 2.800902 -10.022521 18.308761 -2.995615 -5.960353 -6.666115 4.497025 -1.196142 -1.754092 4.485221 -1.123185 -1.829482 19.254380 -0.665998 2.405984 15.845356 -0.666526 -3.829980 -0.000001 -0.000001 0.000001 -0.000001 -0.000001 0.000001 -0.000001 -0.000001 0.000001 0.515617 7.194944 -11.499306 41.974296 -69.696534 -23.904245 -0.000012 -24.415635 -0.000016 -11.804841 -1.902193 -4.327267 0.168122 1.515272 -12.661693 0.168984 1.519011 -12.693691 0.042247 0.763225 -6.337733 0.000001 0.000002 0.000003 -1.558370 5.268772 6.377027 4.800782 18.643266 1.528250 -0.091667 6.909926 3.060029 0.000002 0.000000 -0.000001 0.168544 1.517148 -12.677676 0.168555 1.517133 -12.677692 0.042255 0.763243 -6.337721 -0.000001 -0.000000 -0.000002 0.168546 1.517147 -12.677667 0.168553 1.517148 -12.677692 0.042253 0.763246 -6.337727 -0.000002 0.000001 0.000001 1.044007 5.476186 -12.220676 0.164103 -2.538667 -13.176065 0.042249 0.763250 -6.337728 -0.000001 -0.000000 0.000001 1.071591 1.830278 10.215975 -17.017777 -9.228211 78.061385 0.000005 5.982843 -0.000023 18.848016 4.083052 3.995501 0.073436 -1.009968 8.317468 0.073434 -1.009968 8.317453 0.018385 -0.506317 4.158403 0.000000 0.000000 -0.000003 -1.849249 -3.581802 -6.586122 5.652735 -20.117559 -0.987248 -0.748797 -5.588995 -2.702393 -0.000002 0.000000 0.000000 0.073437 -1.009969 8.317478 0.073436 -1.009962 8.317465 0.018385 -0.506319 4.158399 -0.000000 0.000001 -0.000002 0.073439 -1.009972 8.317470 0.073436 -1.009968 8.317458 0.018384 -0.506313 4.158408 -0.000000 0.000000 0.000001 0.073437 -1.009967 8.317482 0.073438 -1.009968 8.317453 0.018382 -0.506318 4.158409 -0.000002 0.000001 0.000001 -22.068558 3.194899 -8.866512 28.782697 9.327679 0.112454 -6.181719 9.593966 -10.031791 -0.308229 0.000000 -0.000002 0.000000 -0.000000 -0.000000 -37.149143 -5.393605 -12.026139 53.007609 8.248264 -10.020487 -19.265426 9.140520 -4.187549 -1.650185 0.000002 0.000000 0.000000 -0.000000 -0.000000 
